<svg width="14" height="14" viewBox="0 0 14 14" fill="none" xmlns="http://www.w3.org/2000/svg">
<path d="M12.7143 0.333344H1.28274C0.758931 0.333344 0.333336 0.764891 0.333336 1.29465V12.7054C0.333336 13.2351 0.758931 13.6667 1.28274 13.6667H12.7143C13.2381 13.6667 13.6667 13.2351 13.6667 12.7054V1.29465C13.6667 0.764891 13.2381 0.333344 12.7143 0.333344ZM4.3631 11.7619H2.38691V5.39882H4.36607V11.7619H4.3631ZM3.375 4.52977C2.74107 4.52977 2.22917 4.01489 2.22917 3.38394C2.22917 2.75299 2.74107 2.23811 3.375 2.23811C4.00596 2.23811 4.52084 2.75299 4.52084 3.38394C4.52084 4.01787 4.00893 4.52977 3.375 4.52977V4.52977ZM11.7708 11.7619H9.79465V8.66668C9.79465 7.92858 9.77976 6.97918 8.76786 6.97918C7.7381 6.97918 7.58036 7.78275 7.58036 8.61311V11.7619H5.60417V5.39882H7.5V6.26787H7.52679C7.79167 5.76787 8.4375 5.24108 9.39881 5.24108C11.3988 5.24108 11.7708 6.55953 11.7708 8.27382V11.7619V11.7619Z" fill="white"/>
</svg>
